<svg width="1920" height="960" viewBox="0 0 1920 960" fill="none" xmlns="http://www.w3.org/2000/svg">
<rect width="1920" height="960" fill="#E5E5E5"/>
<rect width="1920" height="960" fill="white"/>
<rect width="1920" height="960" fill="#082028"/>
<path d="M597.104 606.578H631.572C638.639 606.578 644.712 607.636 649.79 609.752C654.91 611.868 658.846 614.999 661.597 619.146C664.347 623.294 665.723 628.393 665.723 634.444C665.723 639.396 664.876 643.648 663.184 647.203C661.533 650.715 659.185 653.657 656.138 656.026C653.133 658.354 649.6 660.216 645.537 661.612L639.507 664.786H609.546L609.419 649.933H631.699C635.042 649.933 637.814 649.34 640.015 648.155C642.215 646.97 643.866 645.32 644.966 643.204C646.108 641.088 646.68 638.634 646.68 635.841C646.68 632.879 646.13 630.318 645.029 628.16C643.929 626.002 642.257 624.352 640.015 623.209C637.772 622.066 634.958 621.495 631.572 621.495H616.147V699H597.104V606.578ZM648.774 699L627.7 657.804L647.822 657.677L669.15 698.111V699H648.774ZM710.854 700.27C705.522 700.27 700.741 699.423 696.509 697.73C692.277 695.995 688.68 693.604 685.718 690.558C682.798 687.511 680.555 683.977 678.989 679.957C677.424 675.895 676.641 671.578 676.641 667.008V664.469C676.641 659.264 677.381 654.503 678.862 650.187C680.343 645.87 682.459 642.125 685.21 638.951C688.003 635.777 691.388 633.344 695.366 631.651C699.344 629.916 703.83 629.049 708.823 629.049C713.69 629.049 718.006 629.853 721.772 631.461C725.539 633.069 728.691 635.354 731.23 638.316C733.812 641.279 735.758 644.833 737.07 648.98C738.382 653.085 739.038 657.656 739.038 662.691V670.309H684.448V658.121H721.074V656.725C721.074 654.186 720.609 651.922 719.678 649.933C718.789 647.901 717.435 646.293 715.615 645.108C713.796 643.924 711.468 643.331 708.633 643.331C706.221 643.331 704.147 643.86 702.412 644.918C700.677 645.976 699.259 647.457 698.159 649.361C697.101 651.266 696.297 653.508 695.747 656.09C695.239 658.629 694.985 661.422 694.985 664.469V667.008C694.985 669.758 695.366 672.298 696.128 674.625C696.932 676.952 698.053 678.963 699.492 680.655C700.973 682.348 702.751 683.66 704.824 684.591C706.94 685.522 709.331 685.987 711.997 685.987C715.298 685.987 718.366 685.353 721.201 684.083C724.079 682.771 726.554 680.803 728.628 678.18L737.515 687.828C736.076 689.902 734.108 691.891 731.611 693.795C729.157 695.699 726.195 697.265 722.725 698.492C719.255 699.677 715.298 700.27 710.854 700.27ZM786.519 683.512V652.916C786.519 650.715 786.159 648.832 785.439 647.267C784.72 645.659 783.599 644.41 782.075 643.521C780.594 642.633 778.669 642.188 776.299 642.188C774.268 642.188 772.511 642.548 771.03 643.268C769.549 643.945 768.407 644.939 767.603 646.251C766.799 647.521 766.396 649.023 766.396 650.758H748.115C748.115 647.838 748.792 645.066 750.146 642.442C751.501 639.819 753.468 637.512 756.05 635.523C758.631 633.492 761.699 631.905 765.254 630.763C768.851 629.62 772.871 629.049 777.314 629.049C782.646 629.049 787.386 629.938 791.533 631.715C795.68 633.492 798.939 636.158 801.309 639.713C803.721 643.268 804.927 647.711 804.927 653.043V682.433C804.927 686.199 805.16 689.288 805.625 691.7C806.09 694.07 806.768 696.144 807.656 697.921V699H789.185C788.296 697.138 787.619 694.811 787.153 692.018C786.73 689.182 786.519 686.347 786.519 683.512ZM788.931 657.169L789.058 667.516H778.838C776.426 667.516 774.331 667.791 772.554 668.341C770.776 668.891 769.316 669.674 768.174 670.689C767.031 671.663 766.185 672.805 765.635 674.117C765.127 675.429 764.873 676.868 764.873 678.434C764.873 679.999 765.233 681.417 765.952 682.687C766.672 683.914 767.708 684.887 769.062 685.606C770.417 686.284 772.004 686.622 773.823 686.622C776.574 686.622 778.965 686.072 780.996 684.972C783.027 683.871 784.593 682.517 785.693 680.909C786.836 679.301 787.428 677.778 787.471 676.339L792.295 684.083C791.618 685.818 790.687 687.617 789.502 689.479C788.359 691.34 786.899 693.097 785.122 694.747C783.345 696.355 781.208 697.688 778.711 698.746C776.214 699.762 773.252 700.27 769.824 700.27C765.465 700.27 761.509 699.402 757.954 697.667C754.442 695.89 751.649 693.456 749.575 690.367C747.544 687.236 746.528 683.681 746.528 679.703C746.528 676.106 747.205 672.911 748.56 670.118C749.914 667.325 751.903 664.977 754.526 663.072C757.192 661.126 760.514 659.666 764.492 658.692C768.47 657.677 773.083 657.169 778.33 657.169H788.931ZM847.393 685.987C849.635 685.987 851.624 685.564 853.359 684.718C855.094 683.829 856.449 682.602 857.422 681.036C858.438 679.428 858.966 677.545 859.009 675.387H876.211C876.169 680.211 874.878 684.506 872.339 688.272C869.8 691.996 866.393 694.938 862.119 697.096C857.845 699.212 853.063 700.27 847.773 700.27C842.441 700.27 837.786 699.381 833.809 697.604C829.873 695.826 826.593 693.372 823.97 690.24C821.346 687.066 819.378 683.385 818.066 679.195C816.755 674.964 816.099 670.436 816.099 665.611V663.771C816.099 658.904 816.755 654.376 818.066 650.187C819.378 645.955 821.346 642.273 823.97 639.142C826.593 635.968 829.873 633.492 833.809 631.715C837.744 629.938 842.357 629.049 847.646 629.049C853.275 629.049 858.205 630.128 862.437 632.286C866.711 634.444 870.054 637.534 872.466 641.554C874.92 645.532 876.169 650.25 876.211 655.709H859.009C858.966 653.424 858.48 651.35 857.549 649.488C856.66 647.626 855.348 646.145 853.613 645.045C851.921 643.902 849.826 643.331 847.329 643.331C844.663 643.331 842.484 643.902 840.791 645.045C839.098 646.145 837.786 647.669 836.855 649.615C835.924 651.52 835.269 653.699 834.888 656.153C834.549 658.565 834.38 661.104 834.38 663.771V665.611C834.38 668.277 834.549 670.838 834.888 673.292C835.226 675.746 835.861 677.926 836.792 679.83C837.765 681.734 839.098 683.237 840.791 684.337C842.484 685.437 844.684 685.987 847.393 685.987ZM920.454 630.318V643.268H880.464V630.318H920.454ZM890.366 613.37H908.647V678.307C908.647 680.296 908.901 681.819 909.409 682.877C909.959 683.935 910.763 684.675 911.821 685.099C912.879 685.479 914.212 685.67 915.82 685.67C916.963 685.67 917.979 685.628 918.867 685.543C919.798 685.416 920.581 685.289 921.216 685.162L921.279 698.619C919.714 699.127 918.021 699.529 916.201 699.825C914.382 700.121 912.371 700.27 910.171 700.27C906.151 700.27 902.638 699.614 899.634 698.302C896.672 696.948 894.386 694.789 892.778 691.827C891.17 688.865 890.366 684.972 890.366 680.147V613.37ZM1039.6 606.578V699H1020.56L983.423 637.047V699H964.38V606.578H983.423L1020.62 668.595V606.578H1039.6ZM1092.09 683.512V652.916C1092.09 650.715 1091.74 648.832 1091.02 647.267C1090.3 645.659 1089.17 644.41 1087.65 643.521C1086.17 642.633 1084.24 642.188 1081.88 642.188C1079.84 642.188 1078.09 642.548 1076.61 643.268C1075.13 643.945 1073.98 644.939 1073.18 646.251C1072.37 647.521 1071.97 649.023 1071.97 650.758H1053.69C1053.69 647.838 1054.37 645.066 1055.72 642.442C1057.08 639.819 1059.04 637.512 1061.63 635.523C1064.21 633.492 1067.28 631.905 1070.83 630.763C1074.43 629.62 1078.45 629.049 1082.89 629.049C1088.22 629.049 1092.96 629.938 1097.11 631.715C1101.26 633.492 1104.51 636.158 1106.88 639.713C1109.3 643.268 1110.5 647.711 1110.5 653.043V682.433C1110.5 686.199 1110.74 689.288 1111.2 691.7C1111.67 694.07 1112.34 696.144 1113.23 697.921V699H1094.76C1093.87 697.138 1093.19 694.811 1092.73 692.018C1092.31 689.182 1092.09 686.347 1092.09 683.512ZM1094.51 657.169L1094.63 667.516H1084.41C1082 667.516 1079.91 667.791 1078.13 668.341C1076.35 668.891 1074.89 669.674 1073.75 670.689C1072.61 671.663 1071.76 672.805 1071.21 674.117C1070.7 675.429 1070.45 676.868 1070.45 678.434C1070.45 679.999 1070.81 681.417 1071.53 682.687C1072.25 683.914 1073.28 684.887 1074.64 685.606C1075.99 686.284 1077.58 686.622 1079.4 686.622C1082.15 686.622 1084.54 686.072 1086.57 684.972C1088.6 683.871 1090.17 682.517 1091.27 680.909C1092.41 679.301 1093 677.778 1093.05 676.339L1097.87 684.083C1097.19 685.818 1096.26 687.617 1095.08 689.479C1093.94 691.34 1092.48 693.097 1090.7 694.747C1088.92 696.355 1086.78 697.688 1084.29 698.746C1081.79 699.762 1078.83 700.27 1075.4 700.27C1071.04 700.27 1067.08 699.402 1063.53 697.667C1060.02 695.89 1057.22 693.456 1055.15 690.367C1053.12 687.236 1052.1 683.681 1052.1 679.703C1052.1 676.106 1052.78 672.911 1054.14 670.118C1055.49 667.325 1057.48 664.977 1060.1 663.072C1062.77 661.126 1066.09 659.666 1070.07 658.692C1074.05 657.677 1078.66 657.169 1083.91 657.169H1094.51ZM1158.24 630.318V643.268H1118.25V630.318H1158.24ZM1128.15 613.37H1146.43V678.307C1146.43 680.296 1146.68 681.819 1147.19 682.877C1147.74 683.935 1148.55 684.675 1149.6 685.099C1150.66 685.479 1152 685.67 1153.6 685.67C1154.75 685.67 1155.76 685.628 1156.65 685.543C1157.58 685.416 1158.36 685.289 1159 685.162L1159.06 698.619C1157.5 699.127 1155.8 699.529 1153.98 699.825C1152.16 700.121 1150.15 700.27 1147.95 700.27C1143.93 700.27 1140.42 699.614 1137.42 698.302C1134.45 696.948 1132.17 694.789 1130.56 691.827C1128.95 688.865 1128.15 684.972 1128.15 680.147V613.37ZM1187.94 630.318V699H1169.6V630.318H1187.94ZM1168.46 612.418C1168.46 609.752 1169.39 607.551 1171.25 605.816C1173.11 604.081 1175.61 603.214 1178.74 603.214C1181.83 603.214 1184.31 604.081 1186.17 605.816C1188.07 607.551 1189.02 609.752 1189.02 612.418C1189.02 615.084 1188.07 617.285 1186.17 619.02C1184.31 620.755 1181.83 621.622 1178.74 621.622C1175.61 621.622 1173.11 620.755 1171.25 619.02C1169.39 617.285 1168.46 615.084 1168.46 612.418ZM1226.41 685.67L1241.65 630.318H1260.75L1237.58 699H1226.03L1226.41 685.67ZM1215.94 630.318L1231.24 685.733L1231.55 699H1219.94L1196.77 630.318H1215.94ZM1299.66 700.27C1294.33 700.27 1289.55 699.423 1285.32 697.73C1281.09 695.995 1277.49 693.604 1274.53 690.558C1271.61 687.511 1269.36 683.977 1267.8 679.957C1266.23 675.895 1265.45 671.578 1265.45 667.008V664.469C1265.45 659.264 1266.19 654.503 1267.67 650.187C1269.15 645.87 1271.27 642.125 1274.02 638.951C1276.81 635.777 1280.2 633.344 1284.17 631.651C1288.15 629.916 1292.64 629.049 1297.63 629.049C1302.5 629.049 1306.81 629.853 1310.58 631.461C1314.35 633.069 1317.5 635.354 1320.04 638.316C1322.62 641.279 1324.57 644.833 1325.88 648.98C1327.19 653.085 1327.85 657.656 1327.85 662.691V670.309H1273.26V658.121H1309.88V656.725C1309.88 654.186 1309.42 651.922 1308.49 649.933C1307.6 647.901 1306.24 646.293 1304.42 645.108C1302.6 643.924 1300.28 643.331 1297.44 643.331C1295.03 643.331 1292.96 643.86 1291.22 644.918C1289.49 645.976 1288.07 647.457 1286.97 649.361C1285.91 651.266 1285.11 653.508 1284.56 656.09C1284.05 658.629 1283.79 661.422 1283.79 664.469V667.008C1283.79 669.758 1284.17 672.298 1284.94 674.625C1285.74 676.952 1286.86 678.963 1288.3 680.655C1289.78 682.348 1291.56 683.66 1293.63 684.591C1295.75 685.522 1298.14 685.987 1300.81 685.987C1304.11 685.987 1307.17 685.353 1310.01 684.083C1312.89 682.771 1315.36 680.803 1317.44 678.18L1326.32 687.828C1324.88 689.902 1322.92 691.891 1320.42 693.795C1317.97 695.699 1315 697.265 1311.53 698.492C1308.06 699.677 1304.11 700.27 1299.66 700.27Z" fill="white"/>
<path d="M958.5 453C973.136 453 985 441.136 985 426.5C985 411.864 973.136 400 958.5 400C943.864 400 932 411.864 932 426.5C932 441.136 943.864 453 958.5 453Z" fill="#53C1DE"/>
<path d="M863.93 475.178C866.637 476.074 869.345 476.984 872.117 477.765C871.219 481.364 870.436 484.912 869.705 488.576C863.391 521.905 868.319 548.317 884.078 557.386C900.325 566.749 927.634 557.142 954.225 533.907C956.33 532.049 958.434 530.128 960.539 528.079C963.183 530.666 965.955 533.125 968.714 535.521C994.457 557.616 1019.91 566.557 1035.61 557.501C1051.86 548.138 1057.15 519.74 1050.3 485.156C1049.76 482.517 1049.15 479.814 1048.49 477.048C1050.41 476.51 1052.27 475.908 1054.15 475.306C1088.86 463.842 1114 445.281 1114 426.247C1114 408.058 1090.3 390.408 1057.57 379.174V379.161C1054.33 378.085 1051.08 377.061 1047.83 376.1C1048.37 373.884 1048.86 371.655 1049.33 369.439C1056.74 333.651 1051.86 304.908 1035.43 295.416C1019.61 286.347 993.803 295.775 967.7 318.472C965.108 320.688 962.592 323.032 960.18 325.376C958.55 323.814 956.869 322.251 955.187 320.752C927.814 296.492 900.389 286.283 883.962 295.839C868.203 304.972 863.506 332.05 870.128 365.891C870.796 369.26 871.514 372.552 872.348 375.921C868.498 376.997 864.712 378.201 861.158 379.469C829.036 390.574 806 408.11 806 426.247C806 444.987 830.537 463.765 863.93 475.178ZM945.742 524.095C935.822 533.164 924.323 540.362 911.811 545.294C905.137 548.471 897.438 548.778 890.572 546.075C881.011 540.555 877.032 519.356 882.448 490.83C883.115 487.474 883.834 484.105 884.668 480.801C898.143 483.683 911.734 485.668 925.517 486.68C933.461 497.913 942.175 508.66 951.504 518.741C949.579 520.598 947.654 522.404 945.729 524.082L945.742 524.095ZM1022.14 411.35C1019.32 406.06 1016.43 400.783 1013.41 395.621C1010.46 390.523 1007.39 385.476 1004.21 380.493C1013.9 381.698 1023.17 383.311 1031.83 385.297C1029.06 394.186 1025.81 402.832 1022.14 411.35ZM1022.25 441.247C1026.1 449.957 1029.48 458.782 1032.42 467.851C1023.09 469.951 1013.66 471.578 1004.15 472.654C1007.39 467.607 1010.46 462.445 1013.48 457.283C1016.54 451.993 1019.43 446.652 1022.25 441.247ZM1015.3 426.311C1011.27 434.599 1006.93 442.758 1002.31 450.802C997.743 458.782 992.866 466.531 987.758 474.217C978.801 474.883 969.471 475.178 960.026 475.178C950.58 475.178 941.443 474.883 932.601 474.332C927.365 466.711 922.437 458.897 917.804 450.917C913.171 442.937 908.898 434.829 904.868 426.542H904.842C908.808 418.254 913.145 410.146 917.714 402.166C922.283 394.186 927.224 386.437 932.395 378.815C941.417 378.149 950.619 377.791 960.013 377.791C969.407 377.791 978.66 378.149 987.63 378.815C992.738 386.386 997.614 394.122 1002.25 402.051C1006.88 409.98 1011.2 418.088 1015.3 426.311ZM906.511 395.736C903.559 400.834 900.671 406.047 897.964 411.338C894.178 402.397 890.982 393.636 888.339 385.169C897.001 383.247 906.203 381.685 915.764 380.481C912.594 385.463 909.462 390.561 906.511 395.736ZM897.976 441.72C900.748 447.011 903.572 452.237 906.575 457.399C909.642 462.625 912.773 467.851 916.084 472.949C906.703 471.924 897.373 470.425 888.172 468.44C890.815 459.794 894.126 450.853 897.976 441.72ZM960.488 509.493C954.353 502.896 948.219 495.582 942.264 487.705C948.039 487.948 953.994 488.063 960.013 488.063C966.211 488.063 972.281 487.948 978.3 487.641C972.769 495.262 966.814 502.538 960.488 509.493ZM1039.12 527.528C1038.57 534.842 1034.96 541.682 1029.18 546.306C1019.62 551.827 999.231 544.628 977.209 525.773C974.681 523.608 972.153 521.264 969.574 518.869C978.775 508.724 987.258 497.978 994.958 486.693C1008.73 485.553 1022.45 483.452 1035.99 480.391C1036.59 482.85 1037.13 485.309 1037.62 487.718C1040.57 500.693 1041.04 514.194 1039.12 527.528ZM1044.34 388.473C1047.47 389.37 1050.47 390.331 1053.36 391.291C1081.39 400.898 1101.06 415.193 1101.06 426.119C1101.06 437.891 1080.07 453.082 1050.05 462.983C1048.37 463.521 1046.69 464.059 1044.94 464.546C1040.73 451.455 1035.56 438.672 1029.61 426.234C1035.38 413.989 1040.26 401.372 1044.34 388.473ZM976.17 328.194C998.564 308.75 1019.43 301.129 1028.94 306.586C1039.1 312.414 1043.02 335.944 1036.64 366.865C1036.22 368.901 1035.79 370.887 1035.25 372.872C1021.9 369.875 1008.37 367.71 994.765 366.506C986.95 355.324 978.403 344.641 969.137 334.612C971.486 332.396 973.77 330.295 976.17 328.194ZM960.128 343.809C966.442 350.649 972.397 357.847 977.928 365.289C966.019 364.751 954.045 364.751 942.136 365.289C948.026 357.553 954.109 350.354 960.128 343.809ZM890.341 307.008C900.453 301.129 922.886 309.532 946.525 330.423C948.026 331.742 949.528 333.19 951.094 334.624C941.764 344.641 933.165 355.324 925.286 366.493C911.695 367.697 898.22 369.798 884.861 372.744C884.078 369.683 883.423 366.557 882.756 363.432C877.097 334.368 880.831 312.465 890.341 307.008ZM865.38 391.65C868.806 390.446 872.297 389.37 875.788 388.345C879.882 401.372 884.809 414.168 890.52 426.529C884.745 439.082 879.753 452.044 875.608 465.251L875.595 465.263C873.067 464.546 870.603 463.765 868.139 462.919C855.331 458.897 840.765 452.531 830.242 444.193C824.172 439.991 820.078 433.51 818.936 426.234C818.936 415.244 837.942 401.193 865.38 391.65Z" fill="#53C1DE"/>
<path opacity="0.69" d="M671.113 716.855L666.473 731H662.734L669.074 713.938H671.453L671.113 716.855ZM674.969 731L670.316 716.855L669.941 713.938H672.344L678.719 731H674.969ZM674.758 724.648V727.402H665.746V724.648H674.758ZM691.305 728.598C691.719 728.598 692.086 728.52 692.406 728.363C692.727 728.199 692.977 727.973 693.156 727.684C693.344 727.387 693.441 727.039 693.449 726.641H696.625C696.617 727.531 696.379 728.324 695.91 729.02C695.441 729.707 694.812 730.25 694.023 730.648C693.234 731.039 692.352 731.234 691.375 731.234C690.391 731.234 689.531 731.07 688.797 730.742C688.07 730.414 687.465 729.961 686.98 729.383C686.496 728.797 686.133 728.117 685.891 727.344C685.648 726.562 685.527 725.727 685.527 724.836V724.496C685.527 723.598 685.648 722.762 685.891 721.988C686.133 721.207 686.496 720.527 686.98 719.949C687.465 719.363 688.07 718.906 688.797 718.578C689.523 718.25 690.375 718.086 691.352 718.086C692.391 718.086 693.301 718.285 694.082 718.684C694.871 719.082 695.488 719.652 695.934 720.395C696.387 721.129 696.617 722 696.625 723.008H693.449C693.441 722.586 693.352 722.203 693.18 721.859C693.016 721.516 692.773 721.242 692.453 721.039C692.141 720.828 691.754 720.723 691.293 720.723C690.801 720.723 690.398 720.828 690.086 721.039C689.773 721.242 689.531 721.523 689.359 721.883C689.188 722.234 689.066 722.637 688.996 723.09C688.934 723.535 688.902 724.004 688.902 724.496V724.836C688.902 725.328 688.934 725.801 688.996 726.254C689.059 726.707 689.176 727.109 689.348 727.461C689.527 727.812 689.773 728.09 690.086 728.293C690.398 728.496 690.805 728.598 691.305 728.598ZM701.957 721.086V731H698.582V718.32H701.758L701.957 721.086ZM705.777 718.238L705.719 721.367C705.555 721.344 705.355 721.324 705.121 721.309C704.895 721.285 704.688 721.273 704.5 721.273C704.023 721.273 703.609 721.336 703.258 721.461C702.914 721.578 702.625 721.754 702.391 721.988C702.164 722.223 701.992 722.508 701.875 722.844C701.766 723.18 701.703 723.562 701.688 723.992L701.008 723.781C701.008 722.961 701.09 722.207 701.254 721.52C701.418 720.824 701.656 720.219 701.969 719.703C702.289 719.188 702.68 718.789 703.141 718.508C703.602 718.227 704.129 718.086 704.723 718.086C704.91 718.086 705.102 718.102 705.297 718.133C705.492 718.156 705.652 718.191 705.777 718.238ZM706.48 724.789V724.543C706.48 723.613 706.613 722.758 706.879 721.977C707.145 721.188 707.531 720.504 708.039 719.926C708.547 719.348 709.172 718.898 709.914 718.578C710.656 718.25 711.508 718.086 712.469 718.086C713.43 718.086 714.285 718.25 715.035 718.578C715.785 718.898 716.414 719.348 716.922 719.926C717.438 720.504 717.828 721.188 718.094 721.977C718.359 722.758 718.492 723.613 718.492 724.543V724.789C718.492 725.711 718.359 726.566 718.094 727.355C717.828 728.137 717.438 728.82 716.922 729.406C716.414 729.984 715.789 730.434 715.047 730.754C714.305 731.074 713.453 731.234 712.492 731.234C711.531 731.234 710.676 731.074 709.926 730.754C709.184 730.434 708.555 729.984 708.039 729.406C707.531 728.82 707.145 728.137 706.879 727.355C706.613 726.566 706.48 725.711 706.48 724.789ZM709.855 724.543V724.789C709.855 725.32 709.902 725.816 709.996 726.277C710.09 726.738 710.238 727.145 710.441 727.496C710.652 727.84 710.926 728.109 711.262 728.305C711.598 728.5 712.008 728.598 712.492 728.598C712.961 728.598 713.363 728.5 713.699 728.305C714.035 728.109 714.305 727.84 714.508 727.496C714.711 727.145 714.859 726.738 714.953 726.277C715.055 725.816 715.105 725.32 715.105 724.789V724.543C715.105 724.027 715.055 723.543 714.953 723.09C714.859 722.629 714.707 722.223 714.496 721.871C714.293 721.512 714.023 721.23 713.688 721.027C713.352 720.824 712.945 720.723 712.469 720.723C711.992 720.723 711.586 720.824 711.25 721.027C710.922 721.23 710.652 721.512 710.441 721.871C710.238 722.223 710.09 722.629 709.996 723.09C709.902 723.543 709.855 724.027 709.855 724.543ZM727.422 727.496C727.422 727.254 727.352 727.035 727.211 726.84C727.07 726.645 726.809 726.465 726.426 726.301C726.051 726.129 725.508 725.973 724.797 725.832C724.156 725.691 723.559 725.516 723.004 725.305C722.457 725.086 721.98 724.824 721.574 724.52C721.176 724.215 720.863 723.855 720.637 723.441C720.41 723.02 720.297 722.539 720.297 722C720.297 721.469 720.41 720.969 720.637 720.5C720.871 720.031 721.203 719.617 721.633 719.258C722.07 718.891 722.602 718.605 723.227 718.402C723.859 718.191 724.57 718.086 725.359 718.086C726.461 718.086 727.406 718.262 728.195 718.613C728.992 718.965 729.602 719.449 730.023 720.066C730.453 720.676 730.668 721.371 730.668 722.152H727.293C727.293 721.824 727.223 721.531 727.082 721.273C726.949 721.008 726.738 720.801 726.449 720.652C726.168 720.496 725.801 720.418 725.348 720.418C724.973 720.418 724.648 720.484 724.375 720.617C724.102 720.742 723.891 720.914 723.742 721.133C723.602 721.344 723.531 721.578 723.531 721.836C723.531 722.031 723.57 722.207 723.648 722.363C723.734 722.512 723.871 722.648 724.059 722.773C724.246 722.898 724.488 723.016 724.785 723.125C725.09 723.227 725.465 723.32 725.91 723.406C726.824 723.594 727.641 723.84 728.359 724.145C729.078 724.441 729.648 724.848 730.07 725.363C730.492 725.871 730.703 726.539 730.703 727.367C730.703 727.93 730.578 728.445 730.328 728.914C730.078 729.383 729.719 729.793 729.25 730.145C728.781 730.488 728.219 730.758 727.562 730.953C726.914 731.141 726.184 731.234 725.371 731.234C724.191 731.234 723.191 731.023 722.371 730.602C721.559 730.18 720.941 729.645 720.52 728.996C720.105 728.34 719.898 727.668 719.898 726.98H723.098C723.113 727.441 723.23 727.812 723.449 728.094C723.676 728.375 723.961 728.578 724.305 728.703C724.656 728.828 725.035 728.891 725.441 728.891C725.879 728.891 726.242 728.832 726.531 728.715C726.82 728.59 727.039 728.426 727.188 728.223C727.344 728.012 727.422 727.77 727.422 727.496ZM739.75 727.496C739.75 727.254 739.68 727.035 739.539 726.84C739.398 726.645 739.137 726.465 738.754 726.301C738.379 726.129 737.836 725.973 737.125 725.832C736.484 725.691 735.887 725.516 735.332 725.305C734.785 725.086 734.309 724.824 733.902 724.52C733.504 724.215 733.191 723.855 732.965 723.441C732.738 723.02 732.625 722.539 732.625 722C732.625 721.469 732.738 720.969 732.965 720.5C733.199 720.031 733.531 719.617 733.961 719.258C734.398 718.891 734.93 718.605 735.555 718.402C736.188 718.191 736.898 718.086 737.688 718.086C738.789 718.086 739.734 718.262 740.523 718.613C741.32 718.965 741.93 719.449 742.352 720.066C742.781 720.676 742.996 721.371 742.996 722.152H739.621C739.621 721.824 739.551 721.531 739.41 721.273C739.277 721.008 739.066 720.801 738.777 720.652C738.496 720.496 738.129 720.418 737.676 720.418C737.301 720.418 736.977 720.484 736.703 720.617C736.43 720.742 736.219 720.914 736.07 721.133C735.93 721.344 735.859 721.578 735.859 721.836C735.859 722.031 735.898 722.207 735.977 722.363C736.062 722.512 736.199 722.648 736.387 722.773C736.574 722.898 736.816 723.016 737.113 723.125C737.418 723.227 737.793 723.32 738.238 723.406C739.152 723.594 739.969 723.84 740.688 724.145C741.406 724.441 741.977 724.848 742.398 725.363C742.82 725.871 743.031 726.539 743.031 727.367C743.031 727.93 742.906 728.445 742.656 728.914C742.406 729.383 742.047 729.793 741.578 730.145C741.109 730.488 740.547 730.758 739.891 730.953C739.242 731.141 738.512 731.234 737.699 731.234C736.52 731.234 735.52 731.023 734.699 730.602C733.887 730.18 733.27 729.645 732.848 728.996C732.434 728.34 732.227 727.668 732.227 726.98H735.426C735.441 727.441 735.559 727.812 735.777 728.094C736.004 728.375 736.289 728.578 736.633 728.703C736.984 728.828 737.363 728.891 737.77 728.891C738.207 728.891 738.57 728.832 738.859 728.715C739.148 728.59 739.367 728.426 739.516 728.223C739.672 728.012 739.75 727.77 739.75 727.496ZM754.574 720.758V735.875H751.199V718.32H754.328L754.574 720.758ZM762.602 724.52V724.766C762.602 725.688 762.492 726.543 762.273 727.332C762.062 728.121 761.75 728.809 761.336 729.395C760.922 729.973 760.406 730.426 759.789 730.754C759.18 731.074 758.477 731.234 757.68 731.234C756.906 731.234 756.234 731.078 755.664 730.766C755.094 730.453 754.613 730.016 754.223 729.453C753.84 728.883 753.531 728.223 753.297 727.473C753.062 726.723 752.883 725.918 752.758 725.059V724.414C752.883 723.492 753.062 722.648 753.297 721.883C753.531 721.109 753.84 720.441 754.223 719.879C754.613 719.309 755.09 718.867 755.652 718.555C756.223 718.242 756.891 718.086 757.656 718.086C758.461 718.086 759.168 718.238 759.777 718.543C760.395 718.848 760.91 719.285 761.324 719.855C761.746 720.426 762.062 721.105 762.273 721.895C762.492 722.684 762.602 723.559 762.602 724.52ZM759.215 724.766V724.52C759.215 723.98 759.168 723.484 759.074 723.031C758.988 722.57 758.848 722.168 758.652 721.824C758.465 721.48 758.215 721.215 757.902 721.027C757.598 720.832 757.227 720.734 756.789 720.734C756.328 720.734 755.934 720.809 755.605 720.957C755.285 721.105 755.023 721.32 754.82 721.602C754.617 721.883 754.465 722.219 754.363 722.609C754.262 723 754.199 723.441 754.176 723.934V725.562C754.215 726.141 754.324 726.66 754.504 727.121C754.684 727.574 754.961 727.934 755.336 728.199C755.711 728.465 756.203 728.598 756.812 728.598C757.258 728.598 757.633 728.5 757.938 728.305C758.242 728.102 758.488 727.824 758.676 727.473C758.871 727.121 759.008 726.715 759.086 726.254C759.172 725.793 759.215 725.297 759.215 724.766ZM768.262 713V731H764.875V713H768.262ZM777.895 728.141V722.492C777.895 722.086 777.828 721.738 777.695 721.449C777.562 721.152 777.355 720.922 777.074 720.758C776.801 720.594 776.445 720.512 776.008 720.512C775.633 720.512 775.309 720.578 775.035 720.711C774.762 720.836 774.551 721.02 774.402 721.262C774.254 721.496 774.18 721.773 774.18 722.094H770.805C770.805 721.555 770.93 721.043 771.18 720.559C771.43 720.074 771.793 719.648 772.27 719.281C772.746 718.906 773.312 718.613 773.969 718.402C774.633 718.191 775.375 718.086 776.195 718.086C777.18 718.086 778.055 718.25 778.82 718.578C779.586 718.906 780.188 719.398 780.625 720.055C781.07 720.711 781.293 721.531 781.293 722.516V727.941C781.293 728.637 781.336 729.207 781.422 729.652C781.508 730.09 781.633 730.473 781.797 730.801V731H778.387C778.223 730.656 778.098 730.227 778.012 729.711C777.934 729.188 777.895 728.664 777.895 728.141ZM778.34 723.277L778.363 725.188H776.477C776.031 725.188 775.645 725.238 775.316 725.34C774.988 725.441 774.719 725.586 774.508 725.773C774.297 725.953 774.141 726.164 774.039 726.406C773.945 726.648 773.898 726.914 773.898 727.203C773.898 727.492 773.965 727.754 774.098 727.988C774.23 728.215 774.422 728.395 774.672 728.527C774.922 728.652 775.215 728.715 775.551 728.715C776.059 728.715 776.5 728.613 776.875 728.41C777.25 728.207 777.539 727.957 777.742 727.66C777.953 727.363 778.062 727.082 778.07 726.816L778.961 728.246C778.836 728.566 778.664 728.898 778.445 729.242C778.234 729.586 777.965 729.91 777.637 730.215C777.309 730.512 776.914 730.758 776.453 730.953C775.992 731.141 775.445 731.234 774.812 731.234C774.008 731.234 773.277 731.074 772.621 730.754C771.973 730.426 771.457 729.977 771.074 729.406C770.699 728.828 770.512 728.172 770.512 727.438C770.512 726.773 770.637 726.184 770.887 725.668C771.137 725.152 771.504 724.719 771.988 724.367C772.48 724.008 773.094 723.738 773.828 723.559C774.562 723.371 775.414 723.277 776.383 723.277H778.34ZM790.105 718.32V720.711H782.723V718.32H790.105ZM784.551 715.191H787.926V727.18C787.926 727.547 787.973 727.828 788.066 728.023C788.168 728.219 788.316 728.355 788.512 728.434C788.707 728.504 788.953 728.539 789.25 728.539C789.461 728.539 789.648 728.531 789.812 728.516C789.984 728.492 790.129 728.469 790.246 728.445L790.258 730.93C789.969 731.023 789.656 731.098 789.32 731.152C788.984 731.207 788.613 731.234 788.207 731.234C787.465 731.234 786.816 731.113 786.262 730.871C785.715 730.621 785.293 730.223 784.996 729.676C784.699 729.129 784.551 728.41 784.551 727.52V715.191ZM796.328 731H792.93V717.195C792.93 716.234 793.117 715.426 793.492 714.77C793.875 714.105 794.41 713.605 795.098 713.27C795.793 712.926 796.617 712.754 797.57 712.754C797.883 712.754 798.184 712.777 798.473 712.824C798.762 712.863 799.043 712.914 799.316 712.977L799.281 715.52C799.133 715.48 798.977 715.453 798.812 715.438C798.648 715.422 798.457 715.414 798.238 715.414C797.832 715.414 797.484 715.484 797.195 715.625C796.914 715.758 796.699 715.957 796.551 716.223C796.402 716.488 796.328 716.812 796.328 717.195V731ZM798.859 718.32V720.711H791.043V718.32H798.859ZM800.09 724.789V724.543C800.09 723.613 800.223 722.758 800.488 721.977C800.754 721.188 801.141 720.504 801.648 719.926C802.156 719.348 802.781 718.898 803.523 718.578C804.266 718.25 805.117 718.086 806.078 718.086C807.039 718.086 807.895 718.25 808.645 718.578C809.395 718.898 810.023 719.348 810.531 719.926C811.047 720.504 811.438 721.188 811.703 721.977C811.969 722.758 812.102 723.613 812.102 724.543V724.789C812.102 725.711 811.969 726.566 811.703 727.355C811.438 728.137 811.047 728.82 810.531 729.406C810.023 729.984 809.398 730.434 808.656 730.754C807.914 731.074 807.062 731.234 806.102 731.234C805.141 731.234 804.285 731.074 803.535 730.754C802.793 730.434 802.164 729.984 801.648 729.406C801.141 728.82 800.754 728.137 800.488 727.355C800.223 726.566 800.09 725.711 800.09 724.789ZM803.465 724.543V724.789C803.465 725.32 803.512 725.816 803.605 726.277C803.699 726.738 803.848 727.145 804.051 727.496C804.262 727.84 804.535 728.109 804.871 728.305C805.207 728.5 805.617 728.598 806.102 728.598C806.57 728.598 806.973 728.5 807.309 728.305C807.645 728.109 807.914 727.84 808.117 727.496C808.32 727.145 808.469 726.738 808.562 726.277C808.664 725.816 808.715 725.32 808.715 724.789V724.543C808.715 724.027 808.664 723.543 808.562 723.09C808.469 722.629 808.316 722.223 808.105 721.871C807.902 721.512 807.633 721.23 807.297 721.027C806.961 720.824 806.555 720.723 806.078 720.723C805.602 720.723 805.195 720.824 804.859 721.027C804.531 721.23 804.262 721.512 804.051 721.871C803.848 722.223 803.699 722.629 803.605 723.09C803.512 723.543 803.465 724.027 803.465 724.543ZM817.551 721.086V731H814.176V718.32H817.352L817.551 721.086ZM821.371 718.238L821.312 721.367C821.148 721.344 820.949 721.324 820.715 721.309C820.488 721.285 820.281 721.273 820.094 721.273C819.617 721.273 819.203 721.336 818.852 721.461C818.508 721.578 818.219 721.754 817.984 721.988C817.758 722.223 817.586 722.508 817.469 722.844C817.359 723.18 817.297 723.562 817.281 723.992L816.602 723.781C816.602 722.961 816.684 722.207 816.848 721.52C817.012 720.824 817.25 720.219 817.562 719.703C817.883 719.188 818.273 718.789 818.734 718.508C819.195 718.227 819.723 718.086 820.316 718.086C820.504 718.086 820.695 718.102 820.891 718.133C821.086 718.156 821.246 718.191 821.371 718.238ZM826.34 720.945V731H822.953V718.32H826.129L826.34 720.945ZM825.871 724.215H824.934C824.934 723.332 825.039 722.52 825.25 721.777C825.469 721.027 825.785 720.379 826.199 719.832C826.621 719.277 827.141 718.848 827.758 718.543C828.375 718.238 829.09 718.086 829.902 718.086C830.465 718.086 830.98 718.172 831.449 718.344C831.918 718.508 832.32 718.77 832.656 719.129C833 719.48 833.266 719.941 833.453 720.512C833.641 721.074 833.734 721.75 833.734 722.539V731H830.359V722.914C830.359 722.336 830.281 721.891 830.125 721.578C829.969 721.266 829.746 721.047 829.457 720.922C829.176 720.797 828.836 720.734 828.438 720.734C828 720.734 827.617 720.824 827.289 721.004C826.969 721.184 826.703 721.434 826.492 721.754C826.281 722.066 826.125 722.434 826.023 722.855C825.922 723.277 825.871 723.73 825.871 724.215ZM833.418 723.828L832.211 723.98C832.211 723.152 832.312 722.383 832.516 721.672C832.727 720.961 833.035 720.336 833.441 719.797C833.855 719.258 834.367 718.84 834.977 718.543C835.586 718.238 836.289 718.086 837.086 718.086C837.695 718.086 838.25 718.176 838.75 718.355C839.25 718.527 839.676 718.805 840.027 719.188C840.387 719.562 840.66 720.055 840.848 720.664C841.043 721.273 841.141 722.02 841.141 722.902V731H837.754V722.902C837.754 722.316 837.676 721.871 837.52 721.566C837.371 721.254 837.152 721.039 836.863 720.922C836.582 720.797 836.246 720.734 835.855 720.734C835.449 720.734 835.094 720.816 834.789 720.98C834.484 721.137 834.23 721.355 834.027 721.637C833.824 721.918 833.672 722.246 833.57 722.621C833.469 722.988 833.418 723.391 833.418 723.828ZM854.031 731H850.633V717.195C850.633 716.234 850.82 715.426 851.195 714.77C851.578 714.105 852.113 713.605 852.801 713.27C853.496 712.926 854.32 712.754 855.273 712.754C855.586 712.754 855.887 712.777 856.176 712.824C856.465 712.863 856.746 712.914 857.02 712.977L856.984 715.52C856.836 715.48 856.68 715.453 856.516 715.438C856.352 715.422 856.16 715.414 855.941 715.414C855.535 715.414 855.188 715.484 854.898 715.625C854.617 715.758 854.402 715.957 854.254 716.223C854.105 716.488 854.031 716.812 854.031 717.195V731ZM856.562 718.32V720.711H848.746V718.32H856.562ZM865.176 728.141V722.492C865.176 722.086 865.109 721.738 864.977 721.449C864.844 721.152 864.637 720.922 864.355 720.758C864.082 720.594 863.727 720.512 863.289 720.512C862.914 720.512 862.59 720.578 862.316 720.711C862.043 720.836 861.832 721.02 861.684 721.262C861.535 721.496 861.461 721.773 861.461 722.094H858.086C858.086 721.555 858.211 721.043 858.461 720.559C858.711 720.074 859.074 719.648 859.551 719.281C860.027 718.906 860.594 718.613 861.25 718.402C861.914 718.191 862.656 718.086 863.477 718.086C864.461 718.086 865.336 718.25 866.102 718.578C866.867 718.906 867.469 719.398 867.906 720.055C868.352 720.711 868.574 721.531 868.574 722.516V727.941C868.574 728.637 868.617 729.207 868.703 729.652C868.789 730.09 868.914 730.473 869.078 730.801V731H865.668C865.504 730.656 865.379 730.227 865.293 729.711C865.215 729.188 865.176 728.664 865.176 728.141ZM865.621 723.277L865.645 725.188H863.758C863.312 725.188 862.926 725.238 862.598 725.34C862.27 725.441 862 725.586 861.789 725.773C861.578 725.953 861.422 726.164 861.32 726.406C861.227 726.648 861.18 726.914 861.18 727.203C861.18 727.492 861.246 727.754 861.379 727.988C861.512 728.215 861.703 728.395 861.953 728.527C862.203 728.652 862.496 728.715 862.832 728.715C863.34 728.715 863.781 728.613 864.156 728.41C864.531 728.207 864.82 727.957 865.023 727.66C865.234 727.363 865.344 727.082 865.352 726.816L866.242 728.246C866.117 728.566 865.945 728.898 865.727 729.242C865.516 729.586 865.246 729.91 864.918 730.215C864.59 730.512 864.195 730.758 863.734 730.953C863.273 731.141 862.727 731.234 862.094 731.234C861.289 731.234 860.559 731.074 859.902 730.754C859.254 730.426 858.738 729.977 858.355 729.406C857.98 728.828 857.793 728.172 857.793 727.438C857.793 726.773 857.918 726.184 858.168 725.668C858.418 725.152 858.785 724.719 859.27 724.367C859.762 724.008 860.375 723.738 861.109 723.559C861.844 723.371 862.695 723.277 863.664 723.277H865.621ZM874.551 721.086V731H871.176V718.32H874.352L874.551 721.086ZM878.371 718.238L878.312 721.367C878.148 721.344 877.949 721.324 877.715 721.309C877.488 721.285 877.281 721.273 877.094 721.273C876.617 721.273 876.203 721.336 875.852 721.461C875.508 721.578 875.219 721.754 874.984 721.988C874.758 722.223 874.586 722.508 874.469 722.844C874.359 723.18 874.297 723.562 874.281 723.992L873.602 723.781C873.602 722.961 873.684 722.207 873.848 721.52C874.012 720.824 874.25 720.219 874.562 719.703C874.883 719.188 875.273 718.789 875.734 718.508C876.195 718.227 876.723 718.086 877.316 718.086C877.504 718.086 877.695 718.102 877.891 718.133C878.086 718.156 878.246 718.191 878.371 718.238ZM883.34 720.945V731H879.953V718.32H883.129L883.34 720.945ZM882.871 724.215H881.934C881.934 723.332 882.039 722.52 882.25 721.777C882.469 721.027 882.785 720.379 883.199 719.832C883.621 719.277 884.141 718.848 884.758 718.543C885.375 718.238 886.09 718.086 886.902 718.086C887.465 718.086 887.98 718.172 888.449 718.344C888.918 718.508 889.32 718.77 889.656 719.129C890 719.48 890.266 719.941 890.453 720.512C890.641 721.074 890.734 721.75 890.734 722.539V731H887.359V722.914C887.359 722.336 887.281 721.891 887.125 721.578C886.969 721.266 886.746 721.047 886.457 720.922C886.176 720.797 885.836 720.734 885.438 720.734C885 720.734 884.617 720.824 884.289 721.004C883.969 721.184 883.703 721.434 883.492 721.754C883.281 722.066 883.125 722.434 883.023 722.855C882.922 723.277 882.871 723.73 882.871 724.215ZM890.418 723.828L889.211 723.98C889.211 723.152 889.312 722.383 889.516 721.672C889.727 720.961 890.035 720.336 890.441 719.797C890.855 719.258 891.367 718.84 891.977 718.543C892.586 718.238 893.289 718.086 894.086 718.086C894.695 718.086 895.25 718.176 895.75 718.355C896.25 718.527 896.676 718.805 897.027 719.188C897.387 719.562 897.66 720.055 897.848 720.664C898.043 721.273 898.141 722.02 898.141 722.902V731H894.754V722.902C894.754 722.316 894.676 721.871 894.52 721.566C894.371 721.254 894.152 721.039 893.863 720.922C893.582 720.797 893.246 720.734 892.855 720.734C892.449 720.734 892.094 720.816 891.789 720.98C891.484 721.137 891.23 721.355 891.027 721.637C890.824 721.918 890.672 722.246 890.57 722.621C890.469 722.988 890.418 723.391 890.418 723.828ZM906.59 731.234C905.605 731.234 904.723 731.078 903.941 730.766C903.16 730.445 902.496 730.004 901.949 729.441C901.41 728.879 900.996 728.227 900.707 727.484C900.418 726.734 900.273 725.938 900.273 725.094V724.625C900.273 723.664 900.41 722.785 900.684 721.988C900.957 721.191 901.348 720.5 901.855 719.914C902.371 719.328 902.996 718.879 903.73 718.566C904.465 718.246 905.293 718.086 906.215 718.086C907.113 718.086 907.91 718.234 908.605 718.531C909.301 718.828 909.883 719.25 910.352 719.797C910.828 720.344 911.188 721 911.43 721.766C911.672 722.523 911.793 723.367 911.793 724.297V725.703H901.715V723.453H908.477V723.195C908.477 722.727 908.391 722.309 908.219 721.941C908.055 721.566 907.805 721.27 907.469 721.051C907.133 720.832 906.703 720.723 906.18 720.723C905.734 720.723 905.352 720.82 905.031 721.016C904.711 721.211 904.449 721.484 904.246 721.836C904.051 722.188 903.902 722.602 903.801 723.078C903.707 723.547 903.66 724.062 903.66 724.625V725.094C903.66 725.602 903.73 726.07 903.871 726.5C904.02 726.93 904.227 727.301 904.492 727.613C904.766 727.926 905.094 728.168 905.477 728.34C905.867 728.512 906.309 728.598 906.801 728.598C907.41 728.598 907.977 728.48 908.5 728.246C909.031 728.004 909.488 727.641 909.871 727.156L911.512 728.938C911.246 729.32 910.883 729.688 910.422 730.039C909.969 730.391 909.422 730.68 908.781 730.906C908.141 731.125 907.41 731.234 906.59 731.234ZM917.336 727.719L919.973 718.32H922.117L921.426 722.012L918.789 731H916.996L917.336 727.719ZM916 718.32L917.887 727.707L918.062 731H915.953L912.742 718.32H916ZM924.531 727.555L926.371 718.32H929.641L926.43 731H924.332L924.531 727.555ZM922.41 718.32L925.035 727.648L925.398 731H923.594L920.957 722.023L920.289 718.32H922.41ZM930.801 724.789V724.543C930.801 723.613 930.934 722.758 931.199 721.977C931.465 721.188 931.852 720.504 932.359 719.926C932.867 719.348 933.492 718.898 934.234 718.578C934.977 718.25 935.828 718.086 936.789 718.086C937.75 718.086 938.605 718.25 939.355 718.578C940.105 718.898 940.734 719.348 941.242 719.926C941.758 720.504 942.148 721.188 942.414 721.977C942.68 722.758 942.812 723.613 942.812 724.543V724.789C942.812 725.711 942.68 726.566 942.414 727.355C942.148 728.137 941.758 728.82 941.242 729.406C940.734 729.984 940.109 730.434 939.367 730.754C938.625 731.074 937.773 731.234 936.812 731.234C935.852 731.234 934.996 731.074 934.246 730.754C933.504 730.434 932.875 729.984 932.359 729.406C931.852 728.82 931.465 728.137 931.199 727.355C930.934 726.566 930.801 725.711 930.801 724.789ZM934.176 724.543V724.789C934.176 725.32 934.223 725.816 934.316 726.277C934.41 726.738 934.559 727.145 934.762 727.496C934.973 727.84 935.246 728.109 935.582 728.305C935.918 728.5 936.328 728.598 936.812 728.598C937.281 728.598 937.684 728.5 938.02 728.305C938.355 728.109 938.625 727.84 938.828 727.496C939.031 727.145 939.18 726.738 939.273 726.277C939.375 725.816 939.426 725.32 939.426 724.789V724.543C939.426 724.027 939.375 723.543 939.273 723.09C939.18 722.629 939.027 722.223 938.816 721.871C938.613 721.512 938.344 721.23 938.008 721.027C937.672 720.824 937.266 720.723 936.789 720.723C936.312 720.723 935.906 720.824 935.57 721.027C935.242 721.23 934.973 721.512 934.762 721.871C934.559 722.223 934.41 722.629 934.316 723.09C934.223 723.543 934.176 724.027 934.176 724.543ZM948.262 721.086V731H944.887V718.32H948.062L948.262 721.086ZM952.082 718.238L952.023 721.367C951.859 721.344 951.66 721.324 951.426 721.309C951.199 721.285 950.992 721.273 950.805 721.273C950.328 721.273 949.914 721.336 949.562 721.461C949.219 721.578 948.93 721.754 948.695 721.988C948.469 722.223 948.297 722.508 948.18 722.844C948.07 723.18 948.008 723.562 947.992 723.992L947.312 723.781C947.312 722.961 947.395 722.207 947.559 721.52C947.723 720.824 947.961 720.219 948.273 719.703C948.594 719.188 948.984 718.789 949.445 718.508C949.906 718.227 950.434 718.086 951.027 718.086C951.215 718.086 951.406 718.102 951.602 718.133C951.797 718.156 951.957 718.191 952.082 718.238ZM957.051 712.988V731H953.676V712.988H957.051ZM965.043 718.32L959.535 724.602L956.582 727.59L955.352 725.152L957.695 722.176L960.988 718.32H965.043ZM961.539 731L957.789 725.141L960.121 723.102L965.43 731H961.539ZM976.773 731H973.375V717.195C973.375 716.234 973.562 715.426 973.938 714.77C974.32 714.105 974.855 713.605 975.543 713.27C976.238 712.926 977.062 712.754 978.016 712.754C978.328 712.754 978.629 712.777 978.918 712.824C979.207 712.863 979.488 712.914 979.762 712.977L979.727 715.52C979.578 715.48 979.422 715.453 979.258 715.438C979.094 715.422 978.902 715.414 978.684 715.414C978.277 715.414 977.93 715.484 977.641 715.625C977.359 715.758 977.145 715.957 976.996 716.223C976.848 716.488 976.773 716.812 976.773 717.195V731ZM979.305 718.32V720.711H971.488V718.32H979.305ZM980.535 724.789V724.543C980.535 723.613 980.668 722.758 980.934 721.977C981.199 721.188 981.586 720.504 982.094 719.926C982.602 719.348 983.227 718.898 983.969 718.578C984.711 718.25 985.562 718.086 986.523 718.086C987.484 718.086 988.34 718.25 989.09 718.578C989.84 718.898 990.469 719.348 990.977 719.926C991.492 720.504 991.883 721.188 992.148 721.977C992.414 722.758 992.547 723.613 992.547 724.543V724.789C992.547 725.711 992.414 726.566 992.148 727.355C991.883 728.137 991.492 728.82 990.977 729.406C990.469 729.984 989.844 730.434 989.102 730.754C988.359 731.074 987.508 731.234 986.547 731.234C985.586 731.234 984.73 731.074 983.98 730.754C983.238 730.434 982.609 729.984 982.094 729.406C981.586 728.82 981.199 728.137 980.934 727.355C980.668 726.566 980.535 725.711 980.535 724.789ZM983.91 724.543V724.789C983.91 725.32 983.957 725.816 984.051 726.277C984.145 726.738 984.293 727.145 984.496 727.496C984.707 727.84 984.98 728.109 985.316 728.305C985.652 728.5 986.062 728.598 986.547 728.598C987.016 728.598 987.418 728.5 987.754 728.305C988.09 728.109 988.359 727.84 988.562 727.496C988.766 727.145 988.914 726.738 989.008 726.277C989.109 725.816 989.16 725.32 989.16 724.789V724.543C989.16 724.027 989.109 723.543 989.008 723.09C988.914 722.629 988.762 722.223 988.551 721.871C988.348 721.512 988.078 721.23 987.742 721.027C987.406 720.824 987 720.723 986.523 720.723C986.047 720.723 985.641 720.824 985.305 721.027C984.977 721.23 984.707 721.512 984.496 721.871C984.293 722.223 984.145 722.629 984.051 723.09C983.957 723.543 983.91 724.027 983.91 724.543ZM997.996 721.086V731H994.621V718.32H997.797L997.996 721.086ZM1001.82 718.238L1001.76 721.367C1001.59 721.344 1001.39 721.324 1001.16 721.309C1000.93 721.285 1000.73 721.273 1000.54 721.273C1000.06 721.273 999.648 721.336 999.297 721.461C998.953 721.578 998.664 721.754 998.43 721.988C998.203 722.223 998.031 722.508 997.914 722.844C997.805 723.18 997.742 723.562 997.727 723.992L997.047 723.781C997.047 722.961 997.129 722.207 997.293 721.52C997.457 720.824 997.695 720.219 998.008 719.703C998.328 719.188 998.719 718.789 999.18 718.508C999.641 718.227 1000.17 718.086 1000.76 718.086C1000.95 718.086 1001.14 718.102 1001.34 718.133C1001.53 718.156 1001.69 718.191 1001.82 718.238ZM1012.76 720.945V731H1009.38V718.32H1012.55L1012.76 720.945ZM1012.29 724.215H1011.36C1011.36 723.332 1011.46 722.52 1011.67 721.777C1011.89 721.027 1012.21 720.379 1012.62 719.832C1013.04 719.277 1013.56 718.848 1014.18 718.543C1014.8 718.238 1015.51 718.086 1016.32 718.086C1016.89 718.086 1017.4 718.172 1017.87 718.344C1018.34 718.508 1018.74 718.77 1019.08 719.129C1019.42 719.48 1019.69 719.941 1019.88 720.512C1020.06 721.074 1020.16 721.75 1020.16 722.539V731H1016.78V722.914C1016.78 722.336 1016.7 721.891 1016.55 721.578C1016.39 721.266 1016.17 721.047 1015.88 720.922C1015.6 720.797 1015.26 720.734 1014.86 720.734C1014.42 720.734 1014.04 720.824 1013.71 721.004C1013.39 721.184 1013.12 721.434 1012.91 721.754C1012.7 722.066 1012.55 722.434 1012.45 722.855C1012.34 723.277 1012.29 723.73 1012.29 724.215ZM1019.84 723.828L1018.63 723.98C1018.63 723.152 1018.73 722.383 1018.94 721.672C1019.15 720.961 1019.46 720.336 1019.86 719.797C1020.28 719.258 1020.79 718.84 1021.4 718.543C1022.01 718.238 1022.71 718.086 1023.51 718.086C1024.12 718.086 1024.67 718.176 1025.17 718.355C1025.67 718.527 1026.1 718.805 1026.45 719.188C1026.81 719.562 1027.08 720.055 1027.27 720.664C1027.46 721.273 1027.56 722.02 1027.56 722.902V731H1024.18V722.902C1024.18 722.316 1024.1 721.871 1023.94 721.566C1023.79 721.254 1023.57 721.039 1023.29 720.922C1023 720.797 1022.67 720.734 1022.28 720.734C1021.87 720.734 1021.52 720.816 1021.21 720.98C1020.91 721.137 1020.65 721.355 1020.45 721.637C1020.25 721.918 1020.09 722.246 1019.99 722.621C1019.89 722.988 1019.84 723.391 1019.84 723.828ZM1029.64 724.789V724.543C1029.64 723.613 1029.77 722.758 1030.04 721.977C1030.3 721.188 1030.69 720.504 1031.2 719.926C1031.7 719.348 1032.33 718.898 1033.07 718.578C1033.81 718.25 1034.66 718.086 1035.62 718.086C1036.59 718.086 1037.44 718.25 1038.19 718.578C1038.94 718.898 1039.57 719.348 1040.08 719.926C1040.59 720.504 1040.98 721.188 1041.25 721.977C1041.52 722.758 1041.65 723.613 1041.65 724.543V724.789C1041.65 725.711 1041.52 726.566 1041.25 727.355C1040.98 728.137 1040.59 728.82 1040.08 729.406C1039.57 729.984 1038.95 730.434 1038.2 730.754C1037.46 731.074 1036.61 731.234 1035.65 731.234C1034.69 731.234 1033.83 731.074 1033.08 730.754C1032.34 730.434 1031.71 729.984 1031.2 729.406C1030.69 728.82 1030.3 728.137 1030.04 727.355C1029.77 726.566 1029.64 725.711 1029.64 724.789ZM1033.01 724.543V724.789C1033.01 725.32 1033.06 725.816 1033.15 726.277C1033.25 726.738 1033.39 727.145 1033.6 727.496C1033.81 727.84 1034.08 728.109 1034.42 728.305C1034.75 728.5 1035.16 728.598 1035.65 728.598C1036.12 728.598 1036.52 728.5 1036.86 728.305C1037.19 728.109 1037.46 727.84 1037.66 727.496C1037.87 727.145 1038.02 726.738 1038.11 726.277C1038.21 725.816 1038.26 725.32 1038.26 724.789V724.543C1038.26 724.027 1038.21 723.543 1038.11 723.09C1038.02 722.629 1037.86 722.223 1037.65 721.871C1037.45 721.512 1037.18 721.23 1036.84 721.027C1036.51 720.824 1036.1 720.723 1035.62 720.723C1035.15 720.723 1034.74 720.824 1034.41 721.027C1034.08 721.23 1033.81 721.512 1033.6 721.871C1033.39 722.223 1033.25 722.629 1033.15 723.09C1033.06 723.543 1033.01 724.027 1033.01 724.543ZM1043.72 713H1047.1V728.094L1046.76 731H1043.72V713ZM1055.12 724.531V724.777C1055.12 725.723 1055.02 726.59 1054.82 727.379C1054.62 728.168 1054.32 728.852 1053.91 729.43C1053.49 730 1052.98 730.445 1052.36 730.766C1051.75 731.078 1051.03 731.234 1050.2 731.234C1049.43 731.234 1048.76 731.078 1048.19 730.766C1047.62 730.453 1047.15 730.012 1046.77 729.441C1046.39 728.871 1046.08 728.203 1045.84 727.438C1045.61 726.672 1045.43 725.836 1045.32 724.93V724.391C1045.43 723.484 1045.61 722.648 1045.84 721.883C1046.08 721.117 1046.39 720.449 1046.77 719.879C1047.15 719.309 1047.62 718.867 1048.19 718.555C1048.75 718.242 1049.41 718.086 1050.18 718.086C1051.02 718.086 1051.74 718.246 1052.36 718.566C1052.98 718.879 1053.5 719.324 1053.91 719.902C1054.32 720.473 1054.62 721.152 1054.82 721.941C1055.02 722.723 1055.12 723.586 1055.12 724.531ZM1051.75 724.777V724.531C1051.75 724.016 1051.71 723.531 1051.63 723.078C1051.56 722.617 1051.44 722.215 1051.26 721.871C1051.08 721.52 1050.83 721.242 1050.52 721.039C1050.21 720.836 1049.82 720.734 1049.34 720.734C1048.88 720.734 1048.48 720.812 1048.16 720.969C1047.84 721.125 1047.58 721.344 1047.37 721.625C1047.16 721.906 1047.01 722.242 1046.91 722.633C1046.81 723.016 1046.75 723.438 1046.72 723.898V725.434C1046.75 726.051 1046.85 726.598 1047.03 727.074C1047.21 727.543 1047.5 727.914 1047.87 728.188C1048.25 728.453 1048.75 728.586 1049.36 728.586C1049.84 728.586 1050.23 728.492 1050.54 728.305C1050.86 728.117 1051.1 727.852 1051.27 727.508C1051.45 727.164 1051.57 726.762 1051.64 726.301C1051.71 725.832 1051.75 725.324 1051.75 724.777ZM1060.79 718.32V731H1057.4V718.32H1060.79ZM1057.19 715.016C1057.19 714.523 1057.36 714.117 1057.7 713.797C1058.05 713.477 1058.51 713.316 1059.09 713.316C1059.66 713.316 1060.11 713.477 1060.46 713.797C1060.81 714.117 1060.98 714.523 1060.98 715.016C1060.98 715.508 1060.81 715.914 1060.46 716.234C1060.11 716.555 1059.66 716.715 1059.09 716.715C1058.51 716.715 1058.05 716.555 1057.7 716.234C1057.36 715.914 1057.19 715.508 1057.19 715.016ZM1067.14 713V731H1063.75V713H1067.14ZM1075.76 731.234C1074.78 731.234 1073.89 731.078 1073.11 730.766C1072.33 730.445 1071.67 730.004 1071.12 729.441C1070.58 728.879 1070.17 728.227 1069.88 727.484C1069.59 726.734 1069.45 725.938 1069.45 725.094V724.625C1069.45 723.664 1069.58 722.785 1069.86 721.988C1070.13 721.191 1070.52 720.5 1071.03 719.914C1071.54 719.328 1072.17 718.879 1072.9 718.566C1073.64 718.246 1074.46 718.086 1075.39 718.086C1076.29 718.086 1077.08 718.234 1077.78 718.531C1078.47 718.828 1079.05 719.25 1079.52 719.797C1080 720.344 1080.36 721 1080.6 721.766C1080.84 722.523 1080.96 723.367 1080.96 724.297V725.703H1070.89V723.453H1077.65V723.195C1077.65 722.727 1077.56 722.309 1077.39 721.941C1077.23 721.566 1076.98 721.27 1076.64 721.051C1076.3 720.832 1075.88 720.723 1075.35 720.723C1074.91 720.723 1074.52 720.82 1074.2 721.016C1073.88 721.211 1073.62 721.484 1073.42 721.836C1073.22 722.188 1073.07 722.602 1072.97 723.078C1072.88 723.547 1072.83 724.062 1072.83 724.625V725.094C1072.83 725.602 1072.9 726.07 1073.04 726.5C1073.19 726.93 1073.4 727.301 1073.66 727.613C1073.94 727.926 1074.27 728.168 1074.65 728.34C1075.04 728.512 1075.48 728.598 1075.97 728.598C1076.58 728.598 1077.15 728.48 1077.67 728.246C1078.2 728.004 1078.66 727.641 1079.04 727.156L1080.68 728.938C1080.42 729.32 1080.05 729.688 1079.59 730.039C1079.14 730.391 1078.59 730.68 1077.95 730.906C1077.31 731.125 1076.58 731.234 1075.76 731.234ZM1095.71 728.141V722.492C1095.71 722.086 1095.64 721.738 1095.51 721.449C1095.38 721.152 1095.17 720.922 1094.89 720.758C1094.61 720.594 1094.26 720.512 1093.82 720.512C1093.45 720.512 1093.12 720.578 1092.85 720.711C1092.57 720.836 1092.36 721.02 1092.21 721.262C1092.07 721.496 1091.99 721.773 1091.99 722.094H1088.62C1088.62 721.555 1088.74 721.043 1088.99 720.559C1089.24 720.074 1089.61 719.648 1090.08 719.281C1090.56 718.906 1091.12 718.613 1091.78 718.402C1092.45 718.191 1093.19 718.086 1094.01 718.086C1094.99 718.086 1095.87 718.25 1096.63 718.578C1097.4 718.906 1098 719.398 1098.44 720.055C1098.88 720.711 1099.11 721.531 1099.11 722.516V727.941C1099.11 728.637 1099.15 729.207 1099.23 729.652C1099.32 730.09 1099.45 730.473 1099.61 730.801V731H1096.2C1096.04 730.656 1095.91 730.227 1095.82 729.711C1095.75 729.188 1095.71 728.664 1095.71 728.141ZM1096.15 723.277L1096.18 725.188H1094.29C1093.84 725.188 1093.46 725.238 1093.13 725.34C1092.8 725.441 1092.53 725.586 1092.32 725.773C1092.11 725.953 1091.95 726.164 1091.85 726.406C1091.76 726.648 1091.71 726.914 1091.71 727.203C1091.71 727.492 1091.78 727.754 1091.91 727.988C1092.04 728.215 1092.23 728.395 1092.48 728.527C1092.73 728.652 1093.03 728.715 1093.36 728.715C1093.87 728.715 1094.31 728.613 1094.69 728.41C1095.06 728.207 1095.35 727.957 1095.55 727.66C1095.77 727.363 1095.88 727.082 1095.88 726.816L1096.77 728.246C1096.65 728.566 1096.48 728.898 1096.26 729.242C1096.05 729.586 1095.78 729.91 1095.45 730.215C1095.12 730.512 1094.73 730.758 1094.27 730.953C1093.8 731.141 1093.26 731.234 1092.62 731.234C1091.82 731.234 1091.09 731.074 1090.43 730.754C1089.79 730.426 1089.27 729.977 1088.89 729.406C1088.51 728.828 1088.32 728.172 1088.32 727.438C1088.32 726.773 1088.45 726.184 1088.7 725.668C1088.95 725.152 1089.32 724.719 1089.8 724.367C1090.29 724.008 1090.91 723.738 1091.64 723.559C1092.38 723.371 1093.23 723.277 1094.2 723.277H1096.15ZM1105.08 720.758V735.875H1101.71V718.32H1104.84L1105.08 720.758ZM1113.11 724.52V724.766C1113.11 725.688 1113 726.543 1112.78 727.332C1112.57 728.121 1112.26 728.809 1111.84 729.395C1111.43 729.973 1110.91 730.426 1110.3 730.754C1109.69 731.074 1108.98 731.234 1108.19 731.234C1107.41 731.234 1106.74 731.078 1106.17 730.766C1105.6 730.453 1105.12 730.016 1104.73 729.453C1104.35 728.883 1104.04 728.223 1103.8 727.473C1103.57 726.723 1103.39 725.918 1103.27 725.059V724.414C1103.39 723.492 1103.57 722.648 1103.8 721.883C1104.04 721.109 1104.35 720.441 1104.73 719.879C1105.12 719.309 1105.6 718.867 1106.16 718.555C1106.73 718.242 1107.4 718.086 1108.16 718.086C1108.97 718.086 1109.68 718.238 1110.29 718.543C1110.9 718.848 1111.42 719.285 1111.83 719.855C1112.25 720.426 1112.57 721.105 1112.78 721.895C1113 722.684 1113.11 723.559 1113.11 724.52ZM1109.72 724.766V724.52C1109.72 723.98 1109.68 723.484 1109.58 723.031C1109.5 722.57 1109.36 722.168 1109.16 721.824C1108.97 721.48 1108.72 721.215 1108.41 721.027C1108.11 720.832 1107.73 720.734 1107.3 720.734C1106.84 720.734 1106.44 720.809 1106.11 720.957C1105.79 721.105 1105.53 721.32 1105.33 721.602C1105.12 721.883 1104.97 722.219 1104.87 722.609C1104.77 723 1104.71 723.441 1104.68 723.934V725.562C1104.72 726.141 1104.83 726.66 1105.01 727.121C1105.19 727.574 1105.47 727.934 1105.84 728.199C1106.22 728.465 1106.71 728.598 1107.32 728.598C1107.77 728.598 1108.14 728.5 1108.45 728.305C1108.75 728.102 1109 727.824 1109.18 727.473C1109.38 727.121 1109.52 726.715 1109.59 726.254C1109.68 725.793 1109.72 725.297 1109.72 724.766ZM1118.58 720.758V735.875H1115.21V718.32H1118.34L1118.58 720.758ZM1126.61 724.52V724.766C1126.61 725.688 1126.5 726.543 1126.28 727.332C1126.07 728.121 1125.76 728.809 1125.34 729.395C1124.93 729.973 1124.41 730.426 1123.8 730.754C1123.19 731.074 1122.48 731.234 1121.69 731.234C1120.91 731.234 1120.24 731.078 1119.67 730.766C1119.1 730.453 1118.62 730.016 1118.23 729.453C1117.85 728.883 1117.54 728.223 1117.3 727.473C1117.07 726.723 1116.89 725.918 1116.77 725.059V724.414C1116.89 723.492 1117.07 722.648 1117.3 721.883C1117.54 721.109 1117.85 720.441 1118.23 719.879C1118.62 719.309 1119.1 718.867 1119.66 718.555C1120.23 718.242 1120.9 718.086 1121.66 718.086C1122.47 718.086 1123.18 718.238 1123.79 718.543C1124.4 718.848 1124.92 719.285 1125.33 719.855C1125.75 720.426 1126.07 721.105 1126.28 721.895C1126.5 722.684 1126.61 723.559 1126.61 724.52ZM1123.22 724.766V724.52C1123.22 723.98 1123.18 723.484 1123.08 723.031C1123 722.57 1122.86 722.168 1122.66 721.824C1122.47 721.48 1122.22 721.215 1121.91 721.027C1121.61 720.832 1121.23 720.734 1120.8 720.734C1120.34 720.734 1119.94 720.809 1119.61 720.957C1119.29 721.105 1119.03 721.32 1118.83 721.602C1118.62 721.883 1118.47 722.219 1118.37 722.609C1118.27 723 1118.21 723.441 1118.18 723.934V725.562C1118.22 726.141 1118.33 726.66 1118.51 727.121C1118.69 727.574 1118.97 727.934 1119.34 728.199C1119.72 728.465 1120.21 728.598 1120.82 728.598C1121.27 728.598 1121.64 728.5 1121.95 728.305C1122.25 728.102 1122.5 727.824 1122.68 727.473C1122.88 727.121 1123.02 726.715 1123.09 726.254C1123.18 725.793 1123.22 725.297 1123.22 724.766ZM1142.17 728.234V713H1145.57V731H1142.51L1142.17 728.234ZM1134.16 724.812V724.566C1134.16 723.598 1134.27 722.719 1134.48 721.93C1134.7 721.133 1135.02 720.449 1135.45 719.879C1135.87 719.309 1136.39 718.867 1137 718.555C1137.62 718.242 1138.32 718.086 1139.11 718.086C1139.86 718.086 1140.5 718.242 1141.06 718.555C1141.62 718.867 1142.1 719.312 1142.49 719.891C1142.89 720.461 1143.21 721.137 1143.45 721.918C1143.69 722.691 1143.87 723.539 1143.98 724.461V725C1143.87 725.883 1143.69 726.703 1143.45 727.461C1143.21 728.219 1142.89 728.883 1142.49 729.453C1142.1 730.016 1141.62 730.453 1141.06 730.766C1140.5 731.078 1139.84 731.234 1139.09 731.234C1138.3 731.234 1137.6 731.074 1136.98 730.754C1136.37 730.434 1135.86 729.984 1135.43 729.406C1135.02 728.828 1134.7 728.148 1134.48 727.367C1134.27 726.586 1134.16 725.734 1134.16 724.812ZM1137.53 724.566V724.812C1137.53 725.336 1137.57 725.824 1137.65 726.277C1137.73 726.73 1137.87 727.133 1138.06 727.484C1138.25 727.828 1138.5 728.098 1138.81 728.293C1139.12 728.48 1139.5 728.574 1139.95 728.574C1140.52 728.574 1141 728.445 1141.38 728.188C1141.75 727.922 1142.04 727.559 1142.23 727.098C1142.43 726.637 1142.55 726.105 1142.58 725.504V723.969C1142.56 723.477 1142.49 723.035 1142.37 722.645C1142.26 722.246 1142.1 721.906 1141.88 721.625C1141.67 721.344 1141.4 721.125 1141.08 720.969C1140.77 720.812 1140.4 720.734 1139.97 720.734C1139.53 720.734 1139.16 720.836 1138.84 721.039C1138.53 721.234 1138.28 721.504 1138.08 721.848C1137.89 722.191 1137.75 722.598 1137.66 723.066C1137.57 723.527 1137.53 724.027 1137.53 724.566ZM1154.04 731.234C1153.06 731.234 1152.18 731.078 1151.39 730.766C1150.61 730.445 1149.95 730.004 1149.4 729.441C1148.86 728.879 1148.45 728.227 1148.16 727.484C1147.87 726.734 1147.73 725.938 1147.73 725.094V724.625C1147.73 723.664 1147.86 722.785 1148.14 721.988C1148.41 721.191 1148.8 720.5 1149.31 719.914C1149.82 719.328 1150.45 718.879 1151.18 718.566C1151.92 718.246 1152.75 718.086 1153.67 718.086C1154.57 718.086 1155.36 718.234 1156.06 718.531C1156.75 718.828 1157.34 719.25 1157.8 719.797C1158.28 720.344 1158.64 721 1158.88 721.766C1159.12 722.523 1159.25 723.367 1159.25 724.297V725.703H1149.17V723.453H1155.93V723.195C1155.93 722.727 1155.84 722.309 1155.67 721.941C1155.51 721.566 1155.26 721.27 1154.92 721.051C1154.59 720.832 1154.16 720.723 1153.63 720.723C1153.19 720.723 1152.8 720.82 1152.48 721.016C1152.16 721.211 1151.9 721.484 1151.7 721.836C1151.5 722.188 1151.36 722.602 1151.25 723.078C1151.16 723.547 1151.11 724.062 1151.11 724.625V725.094C1151.11 725.602 1151.18 726.07 1151.32 726.5C1151.47 726.93 1151.68 727.301 1151.95 727.613C1152.22 727.926 1152.55 728.168 1152.93 728.34C1153.32 728.512 1153.76 728.598 1154.25 728.598C1154.86 728.598 1155.43 728.48 1155.95 728.246C1156.48 728.004 1156.94 727.641 1157.32 727.156L1158.96 728.938C1158.7 729.32 1158.34 729.688 1157.88 730.039C1157.42 730.391 1156.88 730.68 1156.23 730.906C1155.59 731.125 1154.86 731.234 1154.04 731.234ZM1165.32 728.539L1168.13 718.32H1171.66L1167.38 731H1165.25L1165.32 728.539ZM1163.38 718.32L1166.21 728.551L1166.27 731H1164.12L1159.84 718.32H1163.38ZM1178.84 731.234C1177.86 731.234 1176.97 731.078 1176.19 730.766C1175.41 730.445 1174.75 730.004 1174.2 729.441C1173.66 728.879 1173.25 728.227 1172.96 727.484C1172.67 726.734 1172.52 725.938 1172.52 725.094V724.625C1172.52 723.664 1172.66 722.785 1172.93 721.988C1173.21 721.191 1173.6 720.5 1174.11 719.914C1174.62 719.328 1175.25 718.879 1175.98 718.566C1176.71 718.246 1177.54 718.086 1178.46 718.086C1179.36 718.086 1180.16 718.234 1180.86 718.531C1181.55 718.828 1182.13 719.25 1182.6 719.797C1183.08 720.344 1183.44 721 1183.68 721.766C1183.92 722.523 1184.04 723.367 1184.04 724.297V725.703H1173.96V723.453H1180.73V723.195C1180.73 722.727 1180.64 722.309 1180.47 721.941C1180.3 721.566 1180.05 721.27 1179.72 721.051C1179.38 720.832 1178.95 720.723 1178.43 720.723C1177.98 720.723 1177.6 720.82 1177.28 721.016C1176.96 721.211 1176.7 721.484 1176.5 721.836C1176.3 722.188 1176.15 722.602 1176.05 723.078C1175.96 723.547 1175.91 724.062 1175.91 724.625V725.094C1175.91 725.602 1175.98 726.07 1176.12 726.5C1176.27 726.93 1176.48 727.301 1176.74 727.613C1177.02 727.926 1177.34 728.168 1177.73 728.34C1178.12 728.512 1178.56 728.598 1179.05 728.598C1179.66 728.598 1180.23 728.48 1180.75 728.246C1181.28 728.004 1181.74 727.641 1182.12 727.156L1183.76 728.938C1183.5 729.32 1183.13 729.688 1182.67 730.039C1182.22 730.391 1181.67 730.68 1181.03 730.906C1180.39 731.125 1179.66 731.234 1178.84 731.234ZM1189.53 713V731H1186.14V713H1189.53ZM1191.78 724.789V724.543C1191.78 723.613 1191.91 722.758 1192.18 721.977C1192.44 721.188 1192.83 720.504 1193.34 719.926C1193.84 719.348 1194.47 718.898 1195.21 718.578C1195.95 718.25 1196.8 718.086 1197.77 718.086C1198.73 718.086 1199.58 718.25 1200.33 718.578C1201.08 718.898 1201.71 719.348 1202.22 719.926C1202.73 720.504 1203.12 721.188 1203.39 721.977C1203.66 722.758 1203.79 723.613 1203.79 724.543V724.789C1203.79 725.711 1203.66 726.566 1203.39 727.355C1203.12 728.137 1202.73 728.82 1202.22 729.406C1201.71 729.984 1201.09 730.434 1200.34 730.754C1199.6 731.074 1198.75 731.234 1197.79 731.234C1196.83 731.234 1195.97 731.074 1195.22 730.754C1194.48 730.434 1193.85 729.984 1193.34 729.406C1192.83 728.82 1192.44 728.137 1192.18 727.355C1191.91 726.566 1191.78 725.711 1191.78 724.789ZM1195.15 724.543V724.789C1195.15 725.32 1195.2 725.816 1195.29 726.277C1195.39 726.738 1195.54 727.145 1195.74 727.496C1195.95 727.84 1196.22 728.109 1196.56 728.305C1196.89 728.5 1197.3 728.598 1197.79 728.598C1198.26 728.598 1198.66 728.5 1199 728.305C1199.33 728.109 1199.6 727.84 1199.8 727.496C1200.01 727.145 1200.16 726.738 1200.25 726.277C1200.35 725.816 1200.4 725.32 1200.4 724.789V724.543C1200.4 724.027 1200.35 723.543 1200.25 723.09C1200.16 722.629 1200 722.223 1199.79 721.871C1199.59 721.512 1199.32 721.23 1198.98 721.027C1198.65 720.824 1198.24 720.723 1197.77 720.723C1197.29 720.723 1196.88 720.824 1196.55 721.027C1196.22 721.23 1195.95 721.512 1195.74 721.871C1195.54 722.223 1195.39 722.629 1195.29 723.09C1195.2 723.543 1195.15 724.027 1195.15 724.543ZM1209.24 720.758V735.875H1205.86V718.32H1208.99L1209.24 720.758ZM1217.27 724.52V724.766C1217.27 725.688 1217.16 726.543 1216.94 727.332C1216.73 728.121 1216.41 728.809 1216 729.395C1215.59 729.973 1215.07 730.426 1214.45 730.754C1213.84 731.074 1213.14 731.234 1212.34 731.234C1211.57 731.234 1210.9 731.078 1210.33 730.766C1209.76 730.453 1209.28 730.016 1208.89 729.453C1208.5 728.883 1208.2 728.223 1207.96 727.473C1207.73 726.723 1207.55 725.918 1207.42 725.059V724.414C1207.55 723.492 1207.73 722.648 1207.96 721.883C1208.2 721.109 1208.5 720.441 1208.89 719.879C1209.28 719.309 1209.75 718.867 1210.32 718.555C1210.89 718.242 1211.55 718.086 1212.32 718.086C1213.12 718.086 1213.83 718.238 1214.44 718.543C1215.06 718.848 1215.57 719.285 1215.99 719.855C1216.41 720.426 1216.73 721.105 1216.94 721.895C1217.16 722.684 1217.27 723.559 1217.27 724.52ZM1213.88 724.766V724.52C1213.88 723.98 1213.83 723.484 1213.74 723.031C1213.65 722.57 1213.51 722.168 1213.32 721.824C1213.13 721.48 1212.88 721.215 1212.57 721.027C1212.26 720.832 1211.89 720.734 1211.45 720.734C1210.99 720.734 1210.6 720.809 1210.27 720.957C1209.95 721.105 1209.69 721.32 1209.48 721.602C1209.28 721.883 1209.13 722.219 1209.03 722.609C1208.93 723 1208.86 723.441 1208.84 723.934V725.562C1208.88 726.141 1208.99 726.66 1209.17 727.121C1209.35 727.574 1209.62 727.934 1210 728.199C1210.38 728.465 1210.87 728.598 1211.48 728.598C1211.92 728.598 1212.3 728.5 1212.6 728.305C1212.91 728.102 1213.15 727.824 1213.34 727.473C1213.54 727.121 1213.67 726.715 1213.75 726.254C1213.84 725.793 1213.88 725.297 1213.88 724.766ZM1225.2 731.234C1224.21 731.234 1223.33 731.078 1222.55 730.766C1221.77 730.445 1221.11 730.004 1220.56 729.441C1220.02 728.879 1219.61 728.227 1219.32 727.484C1219.03 726.734 1218.88 725.938 1218.88 725.094V724.625C1218.88 723.664 1219.02 722.785 1219.29 721.988C1219.57 721.191 1219.96 720.5 1220.46 719.914C1220.98 719.328 1221.61 718.879 1222.34 718.566C1223.07 718.246 1223.9 718.086 1224.82 718.086C1225.72 718.086 1226.52 718.234 1227.21 718.531C1227.91 718.828 1228.49 719.25 1228.96 719.797C1229.44 720.344 1229.8 721 1230.04 721.766C1230.28 722.523 1230.4 723.367 1230.4 724.297V725.703H1220.32V723.453H1227.09V723.195C1227.09 722.727 1227 722.309 1226.83 721.941C1226.66 721.566 1226.41 721.27 1226.08 721.051C1225.74 720.832 1225.31 720.723 1224.79 720.723C1224.34 720.723 1223.96 720.82 1223.64 721.016C1223.32 721.211 1223.06 721.484 1222.86 721.836C1222.66 722.188 1222.51 722.602 1222.41 723.078C1222.32 723.547 1222.27 724.062 1222.27 724.625V725.094C1222.27 725.602 1222.34 726.07 1222.48 726.5C1222.63 726.93 1222.84 727.301 1223.1 727.613C1223.38 727.926 1223.7 728.168 1224.09 728.34C1224.48 728.512 1224.92 728.598 1225.41 728.598C1226.02 728.598 1226.59 728.48 1227.11 728.246C1227.64 728.004 1228.1 727.641 1228.48 727.156L1230.12 728.938C1229.86 729.32 1229.49 729.688 1229.03 730.039C1228.58 730.391 1228.03 730.68 1227.39 730.906C1226.75 731.125 1226.02 731.234 1225.2 731.234ZM1235.7 720.945V731H1232.31V718.32H1235.49L1235.7 720.945ZM1235.23 724.215H1234.29C1234.29 723.332 1234.4 722.52 1234.61 721.777C1234.83 721.027 1235.14 720.379 1235.56 719.832C1235.98 719.277 1236.5 718.848 1237.12 718.543C1237.73 718.238 1238.45 718.086 1239.26 718.086C1239.82 718.086 1240.34 718.172 1240.81 718.344C1241.28 718.508 1241.68 718.77 1242.02 719.129C1242.36 719.48 1242.62 719.941 1242.81 720.512C1243 721.074 1243.09 721.75 1243.09 722.539V731H1239.72V722.914C1239.72 722.336 1239.64 721.891 1239.48 721.578C1239.33 721.266 1239.11 721.047 1238.82 720.922C1238.54 720.797 1238.2 720.734 1237.8 720.734C1237.36 720.734 1236.98 720.824 1236.65 721.004C1236.33 721.184 1236.06 721.434 1235.85 721.754C1235.64 722.066 1235.48 722.434 1235.38 722.855C1235.28 723.277 1235.23 723.73 1235.23 724.215ZM1242.78 723.828L1241.57 723.98C1241.57 723.152 1241.67 722.383 1241.88 721.672C1242.09 720.961 1242.39 720.336 1242.8 719.797C1243.21 719.258 1243.73 718.84 1244.34 718.543C1244.95 718.238 1245.65 718.086 1246.45 718.086C1247.05 718.086 1247.61 718.176 1248.11 718.355C1248.61 718.527 1249.04 718.805 1249.39 719.188C1249.75 719.562 1250.02 720.055 1250.21 720.664C1250.4 721.273 1250.5 722.02 1250.5 722.902V731H1247.11V722.902C1247.11 722.316 1247.04 721.871 1246.88 721.566C1246.73 721.254 1246.51 721.039 1246.22 720.922C1245.94 720.797 1245.61 720.734 1245.21 720.734C1244.81 720.734 1244.45 720.816 1244.15 720.98C1243.84 721.137 1243.59 721.355 1243.39 721.637C1243.18 721.918 1243.03 722.246 1242.93 722.621C1242.83 722.988 1242.78 723.391 1242.78 723.828ZM1258.95 731.234C1257.96 731.234 1257.08 731.078 1256.3 730.766C1255.52 730.445 1254.86 730.004 1254.31 729.441C1253.77 728.879 1253.36 728.227 1253.07 727.484C1252.78 726.734 1252.63 725.938 1252.63 725.094V724.625C1252.63 723.664 1252.77 722.785 1253.04 721.988C1253.32 721.191 1253.71 720.5 1254.21 719.914C1254.73 719.328 1255.36 718.879 1256.09 718.566C1256.82 718.246 1257.65 718.086 1258.57 718.086C1259.47 718.086 1260.27 718.234 1260.96 718.531C1261.66 718.828 1262.24 719.25 1262.71 719.797C1263.19 720.344 1263.55 721 1263.79 721.766C1264.03 722.523 1264.15 723.367 1264.15 724.297V725.703H1254.07V723.453H1260.84V723.195C1260.84 722.727 1260.75 722.309 1260.58 721.941C1260.41 721.566 1260.16 721.27 1259.83 721.051C1259.49 720.832 1259.06 720.723 1258.54 720.723C1258.09 720.723 1257.71 720.82 1257.39 721.016C1257.07 721.211 1256.81 721.484 1256.61 721.836C1256.41 722.188 1256.26 722.602 1256.16 723.078C1256.07 723.547 1256.02 724.062 1256.02 724.625V725.094C1256.02 725.602 1256.09 726.07 1256.23 726.5C1256.38 726.93 1256.59 727.301 1256.85 727.613C1257.12 727.926 1257.45 728.168 1257.84 728.34C1258.23 728.512 1258.67 728.598 1259.16 728.598C1259.77 728.598 1260.34 728.48 1260.86 728.246C1261.39 728.004 1261.85 727.641 1262.23 727.156L1263.87 728.938C1263.61 729.32 1263.24 729.688 1262.78 730.039C1262.33 730.391 1261.78 730.68 1261.14 730.906C1260.5 731.125 1259.77 731.234 1258.95 731.234ZM1269.38 721.027V731H1266V718.32H1269.17L1269.38 721.027ZM1268.89 724.215H1267.97C1267.97 723.277 1268.09 722.434 1268.34 721.684C1268.58 720.926 1268.92 720.281 1269.36 719.75C1269.79 719.211 1270.31 718.801 1270.91 718.52C1271.52 718.23 1272.2 718.086 1272.95 718.086C1273.55 718.086 1274.09 718.172 1274.58 718.344C1275.07 718.516 1275.5 718.789 1275.85 719.164C1276.21 719.539 1276.48 720.035 1276.67 720.652C1276.86 721.27 1276.96 722.023 1276.96 722.914V731H1273.56V722.902C1273.56 722.34 1273.48 721.902 1273.33 721.59C1273.17 721.277 1272.94 721.059 1272.64 720.934C1272.34 720.801 1271.97 720.734 1271.54 720.734C1271.08 720.734 1270.69 720.824 1270.35 721.004C1270.02 721.184 1269.75 721.434 1269.53 721.754C1269.32 722.066 1269.16 722.434 1269.05 722.855C1268.94 723.277 1268.89 723.73 1268.89 724.215ZM1285.74 718.32V720.711H1278.36V718.32H1285.74ZM1280.18 715.191H1283.56V727.18C1283.56 727.547 1283.61 727.828 1283.7 728.023C1283.8 728.219 1283.95 728.355 1284.14 728.434C1284.34 728.504 1284.59 728.539 1284.88 728.539C1285.09 728.539 1285.28 728.531 1285.45 728.516C1285.62 728.492 1285.76 728.469 1285.88 728.445L1285.89 730.93C1285.6 731.023 1285.29 731.098 1284.95 731.152C1284.62 731.207 1284.25 731.234 1283.84 731.234C1283.1 731.234 1282.45 731.113 1281.89 730.871C1281.35 730.621 1280.93 730.223 1280.63 729.676C1280.33 729.129 1280.18 728.41 1280.18 727.52V715.191Z" fill="white"/>
</svg>
